<svg width="813" height="684" viewBox="0 0 813 684" fill="none" xmlns="http://www.w3.org/2000/svg">
<g clip-path="url(#clip0_280_237)">
<path d="M787.428 362.862C784.237 362.408 781.195 361.22 778.541 359.391C775.887 357.561 773.695 355.14 772.136 352.319C770.578 349.497 769.696 346.352 769.56 343.132C769.425 339.912 770.039 336.704 771.355 333.761C772.67 330.819 774.651 328.222 777.142 326.176C779.632 324.129 782.564 322.689 785.705 321.969C788.847 321.249 792.113 321.269 795.246 322.026C798.379 322.784 801.293 324.259 803.759 326.335L798.26 335.543L807.051 329.826C810.341 334.228 811.749 339.756 810.964 345.196C810.698 347.106 810.162 348.968 809.372 350.727C807.531 354.861 804.393 358.281 800.433 360.471C796.474 362.661 791.908 363.5 787.428 362.862V362.862Z" fill="#444444"/>
<path d="M706.853 460.703C712.717 453.505 709.676 442.731 705.388 434.496C701.1 426.262 695.631 417.501 697.516 408.41C700.226 395.345 715.612 390.259 728.051 385.431C737.28 381.847 746.053 377.182 754.184 371.533C757.444 369.268 760.65 366.792 762.925 363.539C766.2 358.854 767.248 353.012 768.173 347.371C771.257 328.578 773.896 309.719 776.09 290.794" stroke="#A8A8A8" stroke-miterlimit="10"/>
<path d="M787.969 360.025C784.778 359.572 781.736 358.383 779.082 356.554C776.428 354.724 774.236 352.303 772.677 349.482C771.119 346.66 770.237 343.515 770.101 340.295C769.966 337.075 770.58 333.867 771.896 330.924C773.211 327.982 775.192 325.385 777.683 323.339C780.173 321.292 783.104 319.852 786.246 319.132C789.388 318.412 792.654 318.432 795.787 319.189C798.92 319.947 801.834 321.422 804.3 323.498L798.801 332.706L807.592 326.989C810.882 331.391 812.29 336.919 811.505 342.359C811.239 344.269 810.703 346.131 809.913 347.89C808.072 352.024 804.934 355.444 800.974 357.634C797.015 359.824 792.449 360.663 787.969 360.025V360.025Z" stroke="#A8A8A8" stroke-miterlimit="10"/>
<path d="M796.691 297.583C797.185 294.13 796.802 290.607 795.577 287.34C794.352 284.074 792.324 281.168 789.681 278.89L783.378 287.071L785.606 276.138C781.682 274.121 777.219 273.403 772.861 274.087C768.503 274.771 764.475 276.823 761.359 279.946C758.243 283.069 756.2 287.101 755.525 291.461C754.85 295.821 755.578 300.282 757.604 304.201C759.629 308.12 762.848 311.294 766.795 313.264C770.743 315.234 775.214 315.899 779.563 315.163C783.913 314.427 787.916 312.327 790.995 309.167C794.074 306.007 796.068 301.951 796.691 297.583V297.583Z" fill="#444444"/>
<path d="M797.412 293.801C797.906 290.347 797.523 286.825 796.298 283.558C795.073 280.291 793.045 277.385 790.402 275.108L784.099 283.289L786.327 272.356C782.404 270.339 777.941 269.62 773.582 270.305C769.224 270.989 765.196 273.041 762.08 276.164C758.964 279.287 756.921 283.319 756.246 287.679C755.571 292.038 756.299 296.5 758.325 300.419C760.351 304.338 763.569 307.511 767.517 309.482C771.464 311.452 775.935 312.117 780.285 311.381C784.634 310.644 788.638 308.545 791.716 305.385C794.795 302.225 796.79 298.169 797.412 293.801V293.801Z" stroke="#A8A8A8" stroke-miterlimit="10"/>
<path d="M731.178 387.331C726.118 386.609 721.502 384.051 718.208 380.143C714.914 376.236 713.173 371.254 713.316 366.145C713.46 361.037 715.478 356.16 718.987 352.444C722.495 348.728 727.248 346.433 732.34 345.996L730.628 354.398L737.002 346.119C737.021 346.12 737.04 346.123 737.058 346.126C742.522 346.906 747.453 349.825 750.765 354.24C754.077 358.655 755.5 364.205 754.72 369.669C753.94 375.133 751.022 380.064 746.607 383.376C742.192 386.688 736.642 388.111 731.178 387.331Z" fill="#444444"/>
<path d="M732.056 383.579C726.997 382.857 722.38 380.299 719.086 376.391C715.792 372.484 714.051 367.502 714.195 362.393C714.338 357.285 716.357 352.408 719.865 348.692C723.373 344.976 728.126 342.681 733.218 342.244L731.506 350.646L737.881 342.367C737.899 342.368 737.918 342.371 737.937 342.375C740.642 342.761 743.245 343.676 745.597 345.068C747.949 346.46 750.004 348.302 751.644 350.488C753.284 352.674 754.477 355.162 755.156 357.809C755.834 360.457 755.985 363.212 755.599 365.917C755.213 368.623 754.297 371.226 752.905 373.578C751.513 375.929 749.671 377.984 747.485 379.624C745.299 381.264 742.811 382.458 740.164 383.136C737.517 383.815 734.762 383.965 732.056 383.579V383.579Z" stroke="#A8A8A8" stroke-miterlimit="10"/>
<path d="M734.039 428.023C731.099 431.782 726.956 434.416 722.305 435.483C717.653 436.55 712.776 435.985 708.492 433.884C704.208 431.782 700.776 428.27 698.773 423.939C696.77 419.607 696.318 414.719 697.491 410.093C698.665 405.467 701.393 401.386 705.219 398.533C709.045 395.68 713.735 394.23 718.503 394.425C723.271 394.619 727.828 396.448 731.408 399.603C734.988 402.759 737.374 407.049 738.166 411.755L723.418 419.709L738.084 419.132C737.467 422.377 736.08 425.426 734.039 428.023V428.023Z" fill="#444444"/>
<path d="M734.58 425.186C731.64 428.945 727.497 431.579 722.846 432.646C718.194 433.713 713.317 433.149 709.033 431.047C704.749 428.945 701.317 425.434 699.314 421.102C697.311 416.77 696.859 411.882 698.032 407.256C699.206 402.631 701.934 398.549 705.76 395.696C709.586 392.843 714.276 391.393 719.044 391.588C723.812 391.782 728.369 393.611 731.949 396.766C735.529 399.922 737.915 404.212 738.707 408.918L723.959 416.872L738.625 416.295C738.008 419.54 736.621 422.589 734.58 425.186V425.186Z" stroke="#A8A8A8" stroke-miterlimit="10"/>
<path d="M229 7.5H160V84.5H229V7.5Z" fill="#DA0037"/>
<path d="M241 0.5H172V77.5H241V0.5Z" stroke="#A8A8A8" stroke-miterlimit="10"/>
<path d="M69 94.5H0V171.5H69V94.5Z" fill="#F2F2F2"/>
<path d="M81 87.5H12V164.5H81V87.5Z" stroke="#A8A8A8" stroke-miterlimit="10"/>
<path d="M380 129.5H311V206.5H380V129.5Z" fill="#DA0037"/>
<path d="M392 122.5H323V199.5H392V122.5Z" stroke="#A8A8A8" stroke-miterlimit="10"/>
<path d="M489.5 570.6C537.273 570.6 576 526.679 576 472.5C576 418.321 537.273 374.4 489.5 374.4C441.727 374.4 403 418.321 403 472.5C403 526.679 441.727 570.6 489.5 570.6Z" fill="#393E46"/>
<path d="M600.533 146.074C579.747 155.143 557.081 159.069 534.455 157.52C540.268 153.374 543.997 146.718 545.5 139.738C547.003 132.759 546.431 125.465 544.878 118.496C544.594 117.701 544.611 116.829 544.925 116.045C545.243 115.651 545.645 115.334 546.102 115.116C546.559 114.898 547.059 114.786 547.566 114.787C556.328 113.568 581.425 108.272 588.098 115.773C591.259 119.327 590.049 126.231 591.203 130.573C591.68 132.366 597.779 147.279 600.533 146.074Z" fill="#FBBEBE"/>
<path opacity="0.1" d="M600.533 146.074C579.747 155.143 557.081 159.069 534.455 157.52C540.268 153.374 543.997 146.718 545.5 139.738C547.003 132.759 546.431 125.465 544.878 118.496C544.594 117.701 544.611 116.829 544.925 116.045C545.243 115.651 545.645 115.334 546.102 115.116C546.559 114.898 547.059 114.786 547.566 114.787C556.328 113.568 581.425 108.272 588.098 115.773C591.259 119.327 590.049 126.231 591.203 130.573C591.68 132.366 597.779 147.279 600.533 146.074Z" fill="black"/>
<path d="M527.5 295L397.5 299C397.5 299 282.5 411 377.5 445C377.5 445 494.5 464 522.5 442C522.5 442 557.5 304 527.5 295ZM521.5 332L382.5 341C382.5 341 392.5 307 432.5 307C472.5 307 517.5 298 521.5 319C525.5 340 521.5 332 521.5 332Z" fill="#A8A8A8"/>
<path d="M425.014 277.058C418.53 276.066 411.48 275.493 405.801 278.776C403.91 279.958 402.155 281.343 400.565 282.907C398.282 285.004 396.015 287.119 393.766 289.254C392.121 290.814 390.401 292.535 389.979 294.763C389.111 299.347 394.406 303.038 399.068 302.859C403.73 302.68 407.912 300.118 412.315 298.575C421.181 295.467 453.79 300.78 455.572 291.232C457.837 279.091 432.226 278.206 425.014 277.058Z" fill="#FBBEBE"/>
<path d="M485.786 269.392C477.307 273.698 468.074 276.32 458.597 277.112C457.118 277.136 455.657 277.447 454.296 278.027C453.472 278.534 452.841 279.302 452.503 280.208C449.172 287.183 447.114 294.696 446.425 302.394C446.335 302.764 446.354 303.152 446.478 303.511C446.603 303.87 446.828 304.186 447.127 304.421C448.038 304.877 449.047 305.104 450.066 305.081C465.624 306.068 481.233 306.598 496.894 306.672C497.586 306.725 498.281 306.63 498.933 306.394C499.159 306.274 499.358 306.109 499.519 305.91C499.68 305.71 499.8 305.481 499.87 305.235C503.545 296.098 505.277 286.297 504.957 276.455C504.548 264.863 501.154 261.233 485.786 269.392Z" fill="#D7E5F2"/>
<path opacity="0.1" d="M485.786 269.392C477.307 273.698 468.074 276.32 458.597 277.112C457.118 277.136 455.657 277.447 454.296 278.027C453.472 278.534 452.841 279.302 452.503 280.208C449.172 287.183 447.114 294.696 446.425 302.394C446.335 302.764 446.354 303.152 446.478 303.511C446.603 303.87 446.828 304.186 447.127 304.421C448.038 304.877 449.047 305.104 450.066 305.081C465.624 306.068 481.233 306.598 496.894 306.672C497.586 306.725 498.281 306.63 498.933 306.394C499.159 306.274 499.358 306.109 499.519 305.91C499.68 305.71 499.8 305.481 499.87 305.235C503.545 296.098 505.277 286.297 504.957 276.455C504.548 264.863 501.154 261.233 485.786 269.392Z" fill="black"/>
<path d="M660.5 374L489.5 368L529.5 199C529.5 199 689.5 187 685.5 228C681.5 269 660.5 374 660.5 374Z" fill="#393E46"/>
<path d="M495.419 454.786C495.419 454.786 392.5 473 355.5 419C318.5 365 495.5 394 495.5 394L510.5 435L495.419 454.786Z" fill="#393E46"/>
<path d="M464.5 684C490.457 684 511.5 662.957 511.5 637C511.5 611.043 490.457 590 464.5 590C438.543 590 417.5 611.043 417.5 637C417.5 662.957 438.543 684 464.5 684Z" fill="#393E46"/>
<path d="M469 671C485.292 671 498.5 655.778 498.5 637C498.5 618.222 485.292 603 469 603C452.708 603 439.5 618.222 439.5 637C439.5 655.778 452.708 671 469 671Z" fill="#A8A8A8"/>
<path d="M721.5 194C721.5 194 682.5 172 680.5 224L647.5 466H661.5L699.5 207C699.5 207 718.5 210 721.5 210C724.5 210 721.5 194 721.5 194Z" fill="#A8A8A8"/>
<path d="M760.36 220.702C760.004 221.987 759.376 223.18 758.521 224.202C757.665 225.224 756.601 226.052 755.399 226.629C754.198 227.206 752.887 227.52 751.554 227.549C750.221 227.579 748.898 227.323 747.672 226.799L702.431 207.456L710.638 189.379L755.226 209.687C757.253 210.611 758.884 212.228 759.826 214.247C760.767 216.266 760.957 218.555 760.36 220.702V220.702Z" fill="#393E46"/>
<path d="M485.5 449C485.5 449 413.5 441 393.5 510C373.5 579 375.5 632 358.5 628C341.5 624 305.5 610 305.5 610L308.5 631C308.5 631 371.5 663 381.5 629C391.5 595 397.5 470 454.5 473C511.5 476 521.5 470 521.5 470L485.5 449Z" fill="#A8A8A8"/>
<path d="M348.5 416C348.5 416 292.5 423 270.5 464C248.5 505 237.5 579 237.5 579H258.5C258.5 579 270.5 432 333.5 440L348.5 416Z" fill="#A8A8A8"/>
<path d="M310.5 645L221.5 590C221.5 590 216.5 570 273.5 562C273.5 562 381.267 599.69 370.884 613.845C360.5 628 325.5 650 310.5 645Z" fill="#393E46"/>
<path d="M448.5 466V583H461.5V464L448.5 466Z" fill="#A8A8A8"/>
<path d="M467.5 538C467.5 538 492.5 636 476.5 650C476.5 650 455.5 588 439.5 596L444.5 538H467.5Z" fill="#393E46"/>
<path d="M564.5 130C586.039 130 603.5 112.539 603.5 91C603.5 69.4609 586.039 52 564.5 52C542.961 52 525.5 69.4609 525.5 91C525.5 112.539 542.961 130 564.5 130Z" fill="#FBBEBE"/>
<path d="M557.124 150.11C573.028 152.812 586.774 134.321 602.695 136.921C606.158 137.63 609.472 138.934 612.489 140.775C624.217 147.41 634.436 156.412 642.498 167.21C650.56 178.007 656.287 190.363 659.317 203.493C661.116 211.514 661.811 220.212 658.424 227.702C656.623 231.683 653.774 235.083 650.925 238.396C640.332 250.716 628.706 262.993 613.591 268.954C612.115 274.068 613.532 279.605 615.303 284.624C622.694 305.582 610.941 328.17 610.341 350.385C610.239 354.185 610.352 358.349 607.977 361.316C605.339 364.61 600.63 365.194 596.417 365.432C557.801 367.607 519.239 361.683 481.016 355.777C480.015 355.709 479.05 355.382 478.213 354.828C476.956 353.825 476.766 352.031 476.498 350.445C475.081 342.051 482.534 335.244 479 327.5C472.924 314.186 486.177 299.626 490 285.5C493.822 271.373 495.328 268.888 498 254.5C498.999 249.12 496.121 232.901 497 227.5C499.87 209.858 497.699 189.763 507 174.5C512.588 165.329 511.137 158.198 521.109 154.211C531.63 150.004 545.868 151.42 557.124 150.11Z" fill="#D7E5F2"/>
<path d="M380.995 382.693C369.352 384.938 356.991 387.079 348.031 394.846C342.559 399.589 338.881 406.019 335.309 412.318L298.858 476.583C287.742 496.184 276.619 515.794 266.54 535.948C265.659 537.413 265.143 539.069 265.033 540.775C265.073 543.181 266.69 545.248 268.345 546.994C274.095 552.955 281.159 557.49 288.973 560.238C296.786 562.985 305.134 563.868 313.349 562.818C315.857 549.836 328.197 541.255 334.245 529.498C337.569 523.037 338.904 515.773 341.049 508.832C349.051 482.942 368.046 462.152 386.487 442.297C395.202 432.913 404.124 423.366 415.354 417.209C428.528 409.985 443.814 407.986 458.537 404.986C473.259 401.986 488.503 397.437 498.92 386.61C503.342 381.946 506.672 376.358 508.668 370.25C510.665 364.142 511.279 357.666 510.466 351.291C501.034 350.631 490.538 349.405 481.44 352.438C470.874 355.961 460.654 360.776 450.072 364.374C427.492 372.054 404.412 378.174 380.995 382.693V382.693Z" fill="#696880"/>
<path opacity="0.1" d="M380.995 382.693C369.352 384.938 356.991 387.079 348.031 394.846C342.559 399.589 338.881 406.019 335.309 412.318L298.858 476.583C287.742 496.184 276.619 515.794 266.54 535.948C265.659 537.413 265.143 539.069 265.033 540.775C265.073 543.181 266.69 545.248 268.345 546.994C274.095 552.955 281.159 557.49 288.973 560.238C296.786 562.985 305.134 563.868 313.349 562.818C315.857 549.836 328.197 541.255 334.245 529.498C337.569 523.037 338.904 515.773 341.049 508.832C349.051 482.942 368.046 462.152 386.487 442.297C395.202 432.913 404.124 423.366 415.354 417.209C428.528 409.985 443.814 407.986 458.537 404.986C473.259 401.986 488.503 397.437 498.92 386.61C503.342 381.946 506.672 376.358 508.668 370.25C510.665 364.142 511.279 357.666 510.466 351.291C501.034 350.631 490.538 349.405 481.44 352.438C470.874 355.961 460.654 360.776 450.072 364.374C427.492 372.054 404.412 378.174 380.995 382.693V382.693Z" fill="black"/>
<path d="M223.847 586.48C222.549 587.409 221.551 588.698 220.976 590.187C219.652 594.697 225.297 597.875 229.813 599.175C239.962 602.095 250.788 605.022 260.911 602.012C267.118 600.167 272.52 596.212 278.687 594.236C287.839 591.304 297.752 592.969 307.213 594.659C309.327 582.764 307.905 570.511 303.123 559.416C300.088 552.415 287.937 549.007 280.703 548.699C272.795 548.364 270.049 554.198 265.484 559.568C254.366 572.648 236.656 575.68 223.847 586.48Z" fill="#A8A8A8"/>
<path d="M388.424 401.848C382.829 404.073 377.092 406.39 372.703 410.512C368.07 414.864 365.358 420.834 362.885 426.69C355.575 444 349.353 461.749 344.253 479.834C341.677 488.972 339.38 498.215 335.909 507.052C328.981 524.688 317.226 541.579 318.33 560.495C318.324 562.793 318.942 565.049 320.12 567.023C321.689 569.3 324.358 570.509 326.895 571.61L340.192 577.384C347.327 580.482 356.034 583.461 362.409 579.003C366.675 576.019 368.379 570.609 369.666 565.565C374.314 547.348 377.185 528.426 385.513 511.571C394.925 492.52 410.838 477.125 419.259 457.616C420.451 454.855 421.581 451.893 423.924 450.008C425.86 448.451 428.37 447.845 430.792 447.293C480.733 435.922 531.801 429.702 581.342 416.699C588.385 414.85 595.754 412.655 600.778 407.385C607.745 400.077 608.366 388.97 608.589 378.875C608.729 372.551 608.699 365.679 604.846 360.662C600.5 355.003 592.708 353.509 585.612 352.763C558.398 349.9 533.298 354.41 506.496 357.713C481.973 360.735 457.273 374.577 434.395 383.62C419.065 389.68 403.741 395.756 388.424 401.848Z" fill="#696880"/>
<path d="M326.89 582.631C323.15 591.512 319.114 600.788 311.529 606.73C308.36 609.213 304.261 611.698 304.134 615.722C304 619.979 308.471 622.789 312.478 624.234C322.681 627.915 334.294 628.702 344.249 624.395C351.059 621.448 356.674 616.357 362.154 611.355C363.805 609.848 365.513 608.258 366.286 606.162C366.814 604.395 366.972 602.539 366.751 600.708C366.094 589.599 364.113 578.608 360.849 567.968C360.596 567.132 339.079 564.45 337.171 564.948C331.164 566.517 329.207 577.13 326.89 582.631Z" fill="#A8A8A8"/>
<path d="M661.5 325L531.5 329C531.5 329 416.5 441 511.5 475C511.5 475 628.5 494 656.5 472C656.5 472 691.5 334 661.5 325ZM655.5 362L516.5 371C516.5 371 526.5 337 566.5 337C606.5 337 651.5 328 655.5 349C659.5 370 655.5 362 655.5 362Z" fill="#A8A8A8"/>
<path d="M632 684C704.073 684 762.5 617.738 762.5 536C762.5 454.262 704.073 388 632 388C559.927 388 501.5 454.262 501.5 536C501.5 617.738 559.927 684 632 684Z" fill="#393E46"/>
<path d="M638 646C692.4 646 736.5 596.751 736.5 536C736.5 475.249 692.4 426 638 426C583.6 426 539.5 475.249 539.5 536C539.5 596.751 583.6 646 638 646Z" fill="#A8A8A8"/>
<path d="M663.5 534.5C663.497 532.581 663.306 530.667 662.929 528.785L736.5 492L731.5 481L657.182 517.206C656.432 516.435 655.605 515.743 654.713 515.143L654.77 515.155L676.5 407L657.278 406.562L644.5 513L645.725 513.257C644.732 513.461 643.769 513.79 642.859 514.236L578.584 448.26L569.5 461L635.538 521.754C633.882 524.935 632.887 528.418 632.614 531.994L539.5 570L537.5 586L634.56 545.18C635.465 547.425 636.748 549.499 638.354 551.311L608.5 653H619.5L644.559 555.449C645.671 555.808 646.832 555.993 648 556C650.256 555.979 652.46 555.318 654.356 554.094L706.5 623L722.5 612L661.403 545.263C662.806 541.849 663.518 538.191 663.5 534.5V534.5Z" fill="#393E46"/>
<path d="M519.178 66.3084C520.94 61.8846 526.621 60.0547 528.482 55.6716C530.483 50.9577 527.346 44.9599 530.069 40.6226C532.813 36.2527 539.207 36.7648 544.297 37.6091C550.306 38.6058 556.697 39.2761 562.302 36.8916C564.795 35.8311 567.008 34.2117 569.422 32.983C573.26 31.0367 577.533 30.1078 581.832 30.285C582.803 30.2629 583.762 30.4917 584.617 30.9494C585.431 31.5368 586.058 32.3463 586.424 33.281C588.177 37.0788 588.427 41.8189 591.602 44.5429C593.126 45.8513 595.105 46.4679 596.931 47.3056C601.184 49.3583 604.705 52.6663 607.018 56.7832C609.332 60.9002 610.326 65.6277 609.868 70.3278C609.45 72.5044 609.187 74.7078 609.081 76.9216C609.205 81.7843 612.383 86.6417 610.76 91.227C609.553 94.6352 606.022 96.6525 602.563 97.7032C601.579 98.1032 600.489 98.1584 599.469 97.8597C597.695 97.1407 597.34 94.8604 596.773 93.0314C595.972 90.6365 594.427 88.5603 592.363 87.1057C590.299 85.651 587.824 84.8941 585.299 84.9454C581.265 85.1167 577.184 87.3823 573.378 86.0343C571.507 85.3719 570.044 83.9263 568.549 82.6218C565.109 79.6198 561.04 77.1223 556.519 76.4833C551.998 75.8443 546.989 77.3689 544.327 81.0782C543.251 82.5763 542.6 84.3398 541.574 85.8723C532.357 99.6411 515.373 75.8626 519.178 66.3084Z" fill="#393E46"/>
<path d="M524 332.5H455V409.5H524V332.5Z" fill="#DA0037"/>
<path d="M539.957 303.986C538.246 303.764 536.506 303.963 534.888 304.565C533.271 305.167 531.825 306.155 530.675 307.442C521.925 315.414 512.65 324.401 511.064 336.132C510.822 337.201 510.949 338.321 511.427 339.308C512.27 340.687 514.122 340.993 515.738 341.02C519.827 341.061 523.877 340.228 527.618 338.576C531.358 336.924 534.702 334.492 537.426 331.442C538.927 329.739 540.304 327.79 542.362 326.831C544.243 326.131 546.261 325.881 548.256 326.1C553.746 326.28 566.281 329.09 571.067 326.366C576.1 323.503 574.716 314.527 572.367 310.199C566.781 299.911 549.464 303.883 539.957 303.986Z" fill="#FBBEBE"/>
<path d="M662.099 217.59C665.461 228.407 663.492 240.59 668.256 250.867C671.419 257.688 677.365 263.187 679.207 270.477C680.947 277.365 678.616 284.788 674.527 290.599C670.438 296.409 664.745 300.871 659.035 305.099C652.782 309.73 646.29 314.248 638.923 316.752C631.575 319.249 623.702 319.627 615.949 319.982L564.567 322.338L555.104 293.967L588.583 280.853C591.934 279.54 595.348 278.213 598.937 277.948C605.134 277.489 612.692 279.764 616.672 274.992C617.936 273.238 618.74 271.196 619.01 269.051C622.257 252.383 619.432 234.749 624.43 218.52C626.903 210.488 634.041 194.375 643.776 192.958C654.093 191.456 659.766 210.084 662.099 217.59Z" fill="#D7E5F2"/>
</g>
<defs>
<clipPath id="clip0_280_237">
<rect width="812.217" height="684" fill="white"/>
</clipPath>
</defs>
</svg>
