<svg width="564" height="597" viewBox="0 0 564 597" fill="none" xmlns="http://www.w3.org/2000/svg">
<g clip-path="url(#clip0_280_193)">
<path d="M215.615 94.9669C230.361 94.9669 242.316 83.0126 242.316 68.2662C242.316 53.5198 230.361 41.5654 215.615 41.5654C200.868 41.5654 188.914 53.5198 188.914 68.2662C188.914 83.0126 200.868 94.9669 215.615 94.9669Z" fill="#DA0037"/>
<path d="M275.373 55.623C274.62 53.1539 273.162 50.9589 271.177 49.3083C269.192 47.6577 266.768 46.6235 264.203 46.333C264.143 46.328 264.083 46.328 264.023 46.333C263.951 46.3105 263.878 46.2938 263.803 46.283C254.863 45.123 244.923 47.943 238.233 54.083C235.75 56.3264 233.764 59.0652 232.403 62.123C231.163 60.4291 229.529 59.0629 227.642 58.1429C225.755 57.2229 223.672 56.7767 221.573 56.843C218.867 57.0219 216.282 58.0311 214.17 59.733C212.059 61.4348 210.523 63.7466 209.773 66.353C209.691 66.6714 209.714 67.008 209.838 67.3125C209.962 67.617 210.182 67.8732 210.463 68.043C211.268 68.7309 212.224 69.2176 213.253 69.463C215.463 69.933 217.693 70.363 219.923 70.753C224.283 71.513 228.667 72.1297 233.073 72.603C235.983 72.913 238.9 73.1597 241.823 73.343C247.863 73.723 253.933 73.813 259.983 73.623C262.983 73.523 265.863 73.423 268.603 72.103C270.6 71.1211 272.306 69.6355 273.553 67.793C274.728 66.0207 275.499 64.0125 275.813 61.9099C276.128 59.8073 275.978 57.6613 275.373 55.623V55.623Z" fill="#717171"/>
<path d="M220.443 94.523C220.392 93.4042 220.204 92.2959 219.883 91.223C219.126 88.7541 217.665 86.5599 215.679 84.9096C213.693 83.2593 211.269 82.2247 208.703 81.933C208.646 81.928 208.589 81.928 208.533 81.933C208.457 81.9115 208.381 81.8949 208.303 81.883C203.355 81.2769 198.334 81.793 193.613 83.393C186.353 85.823 179.983 90.7229 176.913 97.7229C175.671 96.0279 174.035 94.6612 172.146 93.7411C170.258 92.8211 168.173 92.3755 166.073 92.4429C163.367 92.6218 160.781 93.631 158.67 95.3329C156.558 97.0348 155.023 99.3465 154.273 101.953C154.195 102.271 154.22 102.606 154.344 102.91C154.468 103.213 154.684 103.47 154.963 103.643C155.768 104.329 156.724 104.815 157.753 105.063C159.973 105.533 162.193 105.963 164.433 106.353C168.793 107.113 173.173 107.73 177.573 108.203C186.512 109.163 195.507 109.503 204.493 109.223C207.483 109.123 210.373 109.023 213.113 107.703C215.107 106.721 216.809 105.235 218.053 103.393C219.806 100.781 220.646 97.6623 220.443 94.523Z" fill="#717171"/>
<path d="M418.13 431.48H393.79V51.51C392.15 50.3 390.5 49.1 388.83 47.93C388.5 47.7 388.17 47.47 387.84 47.24C368.589 33.7747 347.765 22.7127 325.83 14.3L321.11 79.4L321.11 79.404H290.74V3.39C288.76 2.9 286.78 2.43999 284.78 2.00999V79.404H170.1V0C168.11 0.37 166.12 0.750004 164.14 1.16V79.404H132.77L132.77 79.4L127.82 11.13C106.473 18.5294 86.0729 28.4175 67.0399 40.59C66.3799 41.01 65.72 41.43 65.06 41.87C63.73 42.73 62.4 43.61 61.09 44.5V431.48H26.8199C22.4354 431.477 18.1172 432.55 14.2438 434.605C10.3704 436.659 7.06019 439.633 4.60332 443.264C2.14646 446.896 0.617959 451.074 0.151876 455.434C-0.314207 459.794 0.29634 464.201 1.92998 468.27C2.42014 469.5 3.00524 470.69 3.67998 471.83C4.55147 473.316 5.56273 474.716 6.7 476.01C9.2122 478.873 12.3066 481.166 15.7763 482.737C19.246 484.309 23.0112 485.121 26.82 485.12H418.13C425.243 485.12 432.065 482.294 437.095 477.265C442.124 472.235 444.95 465.413 444.95 458.3C444.95 451.187 442.124 444.365 437.095 439.335C432.065 434.306 425.243 431.48 418.13 431.48L418.13 431.48ZM314.57 169.782L295.64 431.48H158.24L139.31 169.782H314.57ZM320.68 85.3629L316.01 149.919H290.74V85.3629H320.68ZM284.78 85.3629V149.919H239.148C238.234 148.126 236.842 146.62 235.126 145.569C233.411 144.517 231.437 143.96 229.425 143.96H223.466C221.454 143.96 219.48 144.517 217.765 145.569C216.049 146.62 214.657 148.126 213.743 149.919H170.1V85.3629H284.78ZM164.14 149.919H137.87L133.2 85.3629H164.14V149.919Z" fill="#A8A8A8"/>
<path d="M2.36768 474.727C11.0549 485.02 20.4512 494.694 30.4877 503.677L410.068 504.677C420.104 495.694 429.5 486.02 438.188 475.727L2.36768 474.727Z" fill="#393E46"/>
<path d="M194.058 377.916V480.476H265.908V377.916C265.909 377.179 265.674 376.46 265.237 375.866C264.799 375.272 264.183 374.834 263.478 374.616C263.146 374.507 262.798 374.452 262.448 374.456H197.528C197.073 374.455 196.622 374.544 196.201 374.718C195.781 374.891 195.398 375.146 195.076 375.467C194.754 375.788 194.498 376.17 194.323 376.59C194.149 377.011 194.059 377.461 194.058 377.916V377.916ZM222.098 413.156C222.117 411.135 222.934 409.202 224.37 407.779C225.806 406.356 227.746 405.558 229.768 405.558C231.79 405.558 233.73 406.356 235.166 407.779C236.603 409.202 237.419 411.135 237.438 413.156V425.056C237.428 427.084 236.615 429.025 235.178 430.454C233.741 431.884 231.796 432.687 229.768 432.687C227.741 432.687 225.796 431.884 224.358 430.454C222.921 429.025 222.108 427.084 222.098 425.056V413.156Z" fill="#393E46"/>
<path d="M193.838 477.196V487.086C193.84 487.599 194.043 488.09 194.404 488.453C194.766 488.816 195.256 489.022 195.768 489.026H264.198C264.711 489.024 265.202 488.818 265.563 488.455C265.925 488.091 266.128 487.599 266.128 487.086V477.196H193.838Z" fill="#393E46"/>
<path d="M81.0278 223.396V410.656C81.0297 413.043 81.9786 415.331 83.666 417.018C85.3534 418.706 87.6415 419.654 90.0278 419.656H367.528C369.914 419.654 372.202 418.706 373.89 417.018C375.577 415.331 376.526 413.043 376.528 410.656V223.396C376.522 221.012 375.572 218.727 373.885 217.042C372.198 215.357 369.912 214.409 367.528 214.406H90.0278C87.6435 214.409 85.3577 215.357 83.6708 217.042C81.9839 218.727 81.0335 221.012 81.0278 223.396V223.396Z" fill="#393E46"/>
<path d="M87.5381 225.726V408.346C87.5403 409.621 88.0478 410.843 88.9493 411.745C89.8509 412.647 91.0731 413.154 92.3481 413.156H365.218C366.493 413.154 367.715 412.647 368.617 411.745C369.518 410.843 370.026 409.621 370.028 408.346V225.726C370.028 224.45 369.521 223.225 368.62 222.322C367.718 221.418 366.495 220.909 365.218 220.906H92.3481C91.0715 220.909 89.8482 221.418 88.9464 222.322C88.0447 223.225 87.5382 224.45 87.5381 225.726V225.726Z" fill="#DA0037"/>
<path d="M143.178 491.356C143.456 491.705 143.809 491.985 144.211 492.178C144.612 492.37 145.053 492.469 145.498 492.466H307.838C308.282 492.466 308.72 492.366 309.121 492.175C309.522 491.984 309.875 491.706 310.154 491.361C310.434 491.016 310.633 490.613 310.738 490.182C310.842 489.75 310.849 489.301 310.758 488.866L308.238 476.896C308.134 476.408 307.909 475.954 307.584 475.575C307.259 475.196 306.844 474.904 306.378 474.726C306.04 474.594 305.681 474.526 305.318 474.526H148.008C147.645 474.526 147.286 474.594 146.948 474.726C146.482 474.904 146.067 475.196 145.742 475.575C145.417 475.954 145.192 476.408 145.088 476.896L142.568 488.866C142.478 489.301 142.487 489.749 142.592 490.18C142.698 490.611 142.898 491.013 143.178 491.356Z" fill="#393E46"/>
<path d="M148.008 477.027C147.958 477.027 147.909 477.035 147.863 477.053C147.784 477.08 147.712 477.126 147.655 477.188C147.598 477.249 147.557 477.324 147.535 477.405L145.014 489.382C145.001 489.451 145.003 489.523 145.02 489.591C145.038 489.659 145.07 489.723 145.116 489.777L145.127 489.791C145.17 489.848 145.227 489.893 145.291 489.924C145.356 489.954 145.427 489.969 145.498 489.967H307.838C307.909 489.968 307.979 489.952 308.043 489.922C308.107 489.892 308.163 489.847 308.208 489.792C308.255 489.739 308.289 489.675 308.308 489.606C308.326 489.537 308.328 489.464 308.314 489.395L305.791 477.411C305.773 477.333 305.735 477.26 305.682 477.199C305.63 477.139 305.563 477.092 305.488 477.063C305.434 477.04 305.376 477.028 305.318 477.027H148.008Z" fill="white"/>
<path d="M101.121 246.063H356.444C356.71 246.057 356.962 245.947 357.148 245.758C357.334 245.568 357.437 245.313 357.437 245.048C357.437 244.782 357.334 244.527 357.148 244.337C356.962 244.148 356.71 244.038 356.444 244.032H101.121C100.856 244.038 100.603 244.148 100.417 244.337C100.232 244.527 100.128 244.782 100.128 245.048C100.128 245.313 100.232 245.568 100.417 245.758C100.603 245.947 100.856 246.057 101.121 246.063Z" fill="#A8A8A8"/>
<path d="M339.064 238.849C342.351 238.849 345.015 236.125 345.015 232.766C345.015 229.406 342.351 226.683 339.064 226.683C335.778 226.683 333.114 229.406 333.114 232.766C333.114 236.125 335.778 238.849 339.064 238.849Z" fill="#A8A8A8"/>
<path d="M318.509 238.849C321.795 238.849 324.459 236.125 324.459 232.766C324.459 229.406 321.795 226.683 318.509 226.683C315.222 226.683 312.558 229.406 312.558 232.766C312.558 236.125 315.222 238.849 318.509 238.849Z" fill="#A8A8A8"/>
<path d="M297.952 238.849C301.239 238.849 303.903 236.125 303.903 232.766C303.903 229.406 301.239 226.683 297.952 226.683C294.666 226.683 292.002 229.406 292.002 232.766C292.002 236.125 294.666 238.849 297.952 238.849Z" fill="#A8A8A8"/>
<path d="M112.409 229.297C112.409 229.44 112.436 229.583 112.491 229.716C112.545 229.849 112.625 229.97 112.726 230.072C112.828 230.175 112.948 230.256 113.081 230.311C113.213 230.367 113.355 230.396 113.499 230.397H128.099C128.388 230.39 128.662 230.27 128.864 230.064C129.066 229.857 129.179 229.58 129.179 229.292C129.179 229.003 129.066 228.726 128.864 228.519C128.662 228.313 128.388 228.193 128.099 228.187H113.499C113.208 228.19 112.93 228.309 112.725 228.517C112.521 228.725 112.407 229.005 112.409 229.297V229.297Z" fill="#A8A8A8"/>
<path d="M112.409 233.447C112.409 233.591 112.436 233.733 112.491 233.866C112.545 234 112.625 234.121 112.726 234.223C112.828 234.325 112.948 234.406 113.08 234.462C113.213 234.517 113.355 234.546 113.499 234.547H128.099C128.388 234.541 128.663 234.421 128.865 234.215C129.067 234.008 129.18 233.731 129.18 233.442C129.18 233.153 129.067 232.876 128.865 232.669C128.663 232.463 128.388 232.343 128.099 232.337H113.499C113.208 232.34 112.93 232.459 112.725 232.667C112.521 232.875 112.407 233.155 112.409 233.447V233.447Z" fill="#A8A8A8"/>
<path d="M112.409 237.586C112.407 237.878 112.521 238.158 112.725 238.366C112.93 238.574 113.208 238.693 113.499 238.696H128.099C128.388 238.69 128.662 238.57 128.864 238.364C129.066 238.157 129.179 237.88 129.179 237.591C129.179 237.303 129.066 237.025 128.864 236.819C128.662 236.612 128.388 236.493 128.099 236.486H113.499C113.355 236.487 113.213 236.516 113.08 236.572C112.948 236.627 112.828 236.708 112.726 236.811C112.625 236.913 112.545 237.034 112.491 237.167C112.436 237.3 112.409 237.443 112.409 237.586Z" fill="#A8A8A8"/>
<path d="M318.401 277.058H139.164C136.809 277.06 134.552 277.997 132.887 279.662C131.222 281.327 130.285 283.584 130.283 285.939V373.176C130.285 375.53 131.222 377.788 132.887 379.453C134.552 381.118 136.809 382.055 139.164 382.058H318.401C320.756 382.055 323.014 381.118 324.679 379.453C326.344 377.788 327.28 375.53 327.283 373.176V285.939C327.28 283.584 326.343 281.327 324.678 279.662C323.013 277.997 320.756 277.06 318.401 277.058ZM325.283 285.939V311.391H262.283V279.058H318.401C320.226 279.06 321.975 279.785 323.265 281.075C324.555 282.365 325.281 284.115 325.283 285.939H325.283ZM197.283 345.725V313.391H260.283V345.725H197.283ZM260.283 347.725V380.058H197.283V347.725H260.283ZM195.283 345.725H132.283V313.391H195.283V345.725ZM197.283 311.391V279.058H260.283V311.391H197.283ZM262.283 313.391H325.283V345.725H262.283V313.391ZM139.164 279.058H195.283V311.391H132.283V285.939C132.285 284.115 133.01 282.365 134.301 281.075C135.591 279.785 137.34 279.06 139.164 279.058V279.058ZM132.283 373.176V347.725H195.283V380.058H139.164C137.34 380.056 135.59 379.33 134.3 378.04C133.01 376.749 132.285 375 132.283 373.176V373.176ZM318.401 380.058H262.283V347.725H325.283V373.176C325.281 375 324.555 376.75 323.265 378.04C321.975 379.33 320.226 380.056 318.401 380.058H318.401Z" fill="#A8A8A8"/>
<path d="M219.673 299.205C218.082 296.574 216.198 293.766 213.246 292.907C209.828 291.912 206.316 293.888 203.338 295.838C194.43 301.67 185.852 307.99 177.643 314.77L177.652 314.872L196.826 313.55C201.444 313.231 206.22 312.869 210.301 310.684C211.849 309.855 213.359 308.748 215.113 308.671C217.293 308.575 219.194 310.098 220.688 311.688C229.525 321.098 232.082 335.488 241.995 343.755C235.744 328.338 228.28 313.442 219.673 299.205V299.205Z" fill="white"/>
<path d="M273.99 379.017C273.013 377.783 272.613 377.494 271.649 376.248C263.801 366.098 256.424 355.604 249.519 344.767C244.828 337.408 240.371 329.907 236.146 322.264C234.134 318.631 232.178 314.969 230.276 311.279C228.801 308.417 227.359 305.539 225.949 302.643C225.546 301.816 225.154 300.985 224.765 300.153C223.846 298.194 222.945 296.227 221.977 294.295C220.977 291.976 219.446 289.925 217.508 288.306C216.586 287.605 215.484 287.181 214.331 287.084C212.706 287.093 211.115 287.549 209.731 288.401C199.26 293.906 189.487 300.646 180.62 308.476C171.739 316.276 163.801 325.087 156.968 334.731C156.759 335.029 156.265 334.744 156.476 334.444C157.307 333.269 158.154 332.106 159.018 330.957C169.758 316.672 182.928 304.388 197.925 294.666C200.448 293.031 203.018 291.472 205.636 289.991C206.956 289.243 208.281 288.506 209.629 287.814C210.92 287.056 212.369 286.607 213.863 286.502C219 286.422 221.66 292.24 223.487 296.154C224.061 297.386 224.642 298.615 225.23 299.839C227.453 304.488 229.761 309.094 232.155 313.657C233.632 316.475 235.142 319.276 236.684 322.061C241.482 330.732 246.583 339.228 251.985 347.549C259.141 358.57 266.24 368.307 274.393 378.613C274.617 378.899 274.216 379.305 273.99 379.017Z" fill="white"/>
<path d="M180.112 305.604C179.814 305.271 179.517 304.938 179.217 304.606C176.848 301.986 174.306 299.396 171.053 297.894C169.501 297.156 167.808 296.763 166.09 296.744C164.318 296.793 162.57 297.174 160.938 297.868C160.162 298.178 159.404 298.529 158.656 298.904C157.803 299.334 156.964 299.792 156.13 300.254C154.563 301.121 153.017 302.026 151.491 302.969C148.454 304.845 145.513 306.865 142.667 309.028C141.192 310.15 139.747 311.308 138.332 312.504C137.016 313.614 135.727 314.754 134.465 315.924C134.195 316.173 133.792 315.77 134.062 315.521C134.395 315.211 134.731 314.903 135.068 314.599C136.018 313.739 136.984 312.896 137.965 312.07C139.754 310.56 141.59 309.109 143.471 307.716C146.397 305.549 149.424 303.528 152.552 301.655C154.114 300.72 155.699 299.823 157.305 298.967C157.79 298.708 158.28 298.455 158.776 298.216C159.902 297.648 161.072 297.172 162.275 296.792C163.978 296.241 165.78 296.064 167.558 296.273C169.275 296.522 170.929 297.095 172.433 297.959C175.627 299.744 178.104 302.505 180.515 305.199C180.759 305.473 180.357 305.878 180.112 305.604Z" fill="white"/>
<path d="M245.558 332.753L253.211 329.954L257.011 328.564C258.239 328.069 259.491 327.638 260.763 327.272C261.875 326.954 263.056 326.969 264.159 327.315C265.143 327.679 266.044 328.237 266.808 328.957C267.588 329.675 268.314 330.451 268.98 331.277C269.807 332.271 270.623 333.276 271.441 334.277C274.821 338.41 278.178 342.561 281.513 346.729C284.848 350.898 288.161 355.084 291.451 359.288C294.75 363.503 298.026 367.734 301.279 371.984C301.677 372.505 302.075 373.026 302.473 373.547C302.693 373.834 303.189 373.551 302.966 373.259C299.689 368.966 296.389 364.692 293.066 360.435C289.735 356.167 286.381 351.918 283.004 347.687C279.627 343.456 276.227 339.243 272.805 335.049C271.952 334.004 271.098 332.96 270.242 331.917C269.521 331.038 268.807 330.149 268.016 329.33C267.342 328.518 266.514 327.847 265.581 327.355C264.647 326.863 263.626 326.561 262.575 326.464C261.302 326.508 260.048 326.784 258.874 327.277C257.595 327.74 256.318 328.212 255.04 328.679L247.333 331.498L245.406 332.203C245.064 332.328 245.212 332.88 245.558 332.753V332.753Z" fill="white"/>
<path d="M170.045 301.191C168.079 300.222 165.889 299.794 163.702 299.95C161.515 300.107 159.409 300.842 157.601 302.081C164.418 303.258 171.161 304.831 177.795 306.795C175.04 305.18 172.885 302.651 170.045 301.191Z" fill="white"/>
<path d="M157.562 302.074L156.813 302.683C157.067 302.47 157.33 302.27 157.601 302.081L157.562 302.074Z" fill="white"/>
<path d="M266.519 332.781C265.849 331.794 264.915 331.014 263.824 330.531L262.772 330.573C270.781 344.725 281.598 357.091 294.559 366.912L266.519 332.781Z" fill="white"/>
<path d="M261.597 317.286C264.943 317.286 267.656 314.573 267.656 311.227C267.656 307.881 264.943 305.168 261.597 305.168C258.251 305.168 255.538 307.881 255.538 311.227C255.538 314.573 258.251 317.286 261.597 317.286Z" fill="white"/>
<path d="M349.522 378.558C350.715 378.556 351.859 378.081 352.702 377.238C353.546 376.394 354.02 375.251 354.022 374.058V281.058C354.022 279.864 353.548 278.72 352.704 277.876C351.86 277.032 350.715 276.558 349.522 276.558C348.328 276.558 347.184 277.032 346.34 277.876C345.496 278.72 345.022 279.864 345.022 281.058V374.058C345.024 375.251 345.498 376.394 346.342 377.238C347.186 378.081 348.329 378.556 349.522 378.558V378.558Z" fill="#A8A8A8"/>
<path d="M349.522 378.558C350.715 378.556 351.859 378.081 352.702 377.238C353.546 376.394 354.02 375.251 354.022 374.058V354.338C353.504 353.631 352.826 353.056 352.044 352.66C351.263 352.264 350.398 352.058 349.522 352.058C348.646 352.058 347.781 352.264 347 352.66C346.218 353.056 345.54 353.631 345.022 354.338V374.058C345.024 375.251 345.498 376.394 346.342 377.238C347.186 378.081 348.329 378.556 349.522 378.558V378.558Z" fill="#A8A8A8"/>
<path d="M349.522 359.558C350.805 359.556 352.035 359.045 352.942 358.138C353.849 357.231 354.359 356.001 354.361 354.718V333.51C353.804 332.75 353.075 332.132 352.234 331.706C351.394 331.28 350.464 331.058 349.522 331.058C348.579 331.058 347.65 331.28 346.809 331.706C345.968 332.132 345.24 332.75 344.682 333.51V354.718C344.684 356.001 345.195 357.231 346.102 358.138C347.009 359.045 348.239 359.556 349.522 359.558V359.558Z" fill="#DA0037"/>
<path d="M349.522 355.701C350.458 355.7 351.355 355.328 352.017 354.666C352.678 354.004 353.051 353.107 353.052 352.172V336.703C352.645 336.148 352.114 335.697 351.501 335.387C350.887 335.076 350.21 334.914 349.522 334.914C348.835 334.914 348.157 335.076 347.544 335.387C346.93 335.697 346.399 336.148 345.992 336.703V352.172C345.994 353.107 346.366 354.004 347.028 354.666C347.689 355.328 348.586 355.7 349.522 355.701V355.701Z" fill="#A8A8A8"/>
<path d="M210.698 483.036C209.908 482.328 209.431 481.336 209.372 480.277C209.313 479.218 209.676 478.179 210.381 477.388L249.697 433.396C250.047 433.004 250.471 432.685 250.944 432.458C251.418 432.23 251.931 432.097 252.456 432.068C252.98 432.038 253.505 432.113 254.001 432.286C254.497 432.46 254.954 432.729 255.345 433.079C255.737 433.429 256.056 433.853 256.284 434.326C256.512 434.799 256.644 435.313 256.674 435.837C256.703 436.362 256.629 436.887 256.455 437.383C256.282 437.879 256.012 438.335 255.662 438.727L216.347 482.719C215.639 483.509 214.647 483.986 213.588 484.045C212.529 484.105 211.49 483.742 210.698 483.036Z" fill="#DA0037"/>
<path d="M536.85 555.466C536.85 562.756 535.13 568.336 535.34 572.796C523.545 577.944 511.418 582.294 499.04 585.816C497.64 586.216 496.24 586.596 494.83 586.976C487.2 563.616 479.56 542.226 476.55 539.956C469.66 534.786 466.21 556.176 466.21 551.006C466.21 545.836 469.66 545.836 461.05 538.946C452.43 532.056 457.6 501.046 457.6 501.046L445.54 470.036L459.03 420.576L476.55 356.326H493.78C493.78 356.326 494.29 356.696 495.14 357.386C499.45 360.906 512.45 372.666 511.01 385.616C510.58 389.476 511.54 400.696 513.21 415.636C518.29 460.746 529.96 509.786 529.96 522.726C529.96 539.956 536.85 545.126 536.85 555.466Z" fill="#E6E6E6"/>
<path d="M522.402 415.468C522.382 415.418 522.372 415.378 522.352 415.338C521.966 414.297 521.515 413.282 521.002 412.298C518.092 406.828 521.172 398.428 517.892 389.148C512.592 374.108 506.132 365.238 496.662 357.288C496.382 357.048 496.102 356.818 495.812 356.578L495.802 356.568C489.482 351.378 481.862 346.528 472.402 340.488C470.432 339.228 468.372 337.918 466.232 336.538C463.472 334.768 463.622 328.868 463.782 322.628C463.962 315.698 464.152 308.518 460.752 304.038L460.532 303.748L460.182 303.658C448.525 301.352 436.635 300.436 424.762 300.928H424.752C419.711 301.115 414.705 301.849 409.822 303.118C409.462 303.218 409.102 303.318 408.752 303.438C408.482 303.508 408.212 303.598 407.942 303.688L407.722 303.768L407.552 303.928C404.262 307.218 403.502 313.118 403.142 319.268V319.278C403.072 320.398 403.012 321.518 402.962 322.638C402.682 328.618 402.422 334.268 400.222 336.718C395.315 342.277 389.384 346.84 382.752 350.158C372.422 355.258 364.252 355.098 364.132 355.098L363.182 355.068L363.092 356.008C356.232 369.078 356.492 402.798 356.282 438.908C356.272 440.918 356.259 442.938 356.242 444.968C356.122 461.788 355.802 478.898 354.542 494.488C353.992 501.188 353.282 507.598 352.332 513.588C347.712 542.758 326.782 518.538 316.772 537.948C317.101 539.857 317.655 541.72 318.422 543.498C319.572 544.178 320.752 544.838 321.922 545.498C327.112 548.388 332.399 551.085 337.782 553.588C338.082 553.728 338.382 553.868 338.682 553.998C348.556 558.567 358.734 562.449 369.142 565.618C371.172 566.238 373.202 566.828 375.252 567.388C393.386 572.394 412.058 575.191 430.862 575.718C430.938 575.709 431.015 575.706 431.092 575.708C453.331 575.093 475.425 571.908 496.932 566.218C497.232 566.138 497.532 566.058 497.832 565.978C499.242 565.598 500.642 565.218 502.042 564.818C514.42 561.296 526.547 556.946 538.342 551.798C538.354 552.237 538.398 552.675 538.472 553.108C538.482 553.249 538.502 553.389 538.532 553.528C538.552 553.368 538.572 553.208 538.582 553.048C538.642 552.578 538.692 552.098 538.742 551.618C544.862 491.938 532.152 441.268 522.402 415.468Z" fill="#D7E5F2"/>
<path d="M384.968 269.2C391.071 280.361 400.794 289.11 412.534 294.008C424.274 298.905 437.332 299.657 449.557 296.142C461.782 292.626 472.446 285.052 479.791 274.667C487.137 264.282 490.727 251.704 489.969 239.006C489.212 226.308 484.153 214.247 475.625 204.808C467.097 195.37 455.609 189.117 443.052 187.079C430.496 185.042 417.62 187.341 406.545 193.599C395.47 199.857 386.857 209.7 382.123 221.507C381.867 222.148 381.636 222.789 381.406 223.455C378.73 230.898 377.664 238.824 378.278 246.71C378.892 254.596 381.172 262.261 384.968 269.2V269.2Z" fill="#FFB6B6"/>
<path d="M376.921 223.455C379.33 216.714 378.279 220.225 380.714 213.511C379.125 219.457 381.636 222.788 381.406 223.455H448.064V184.705C428.535 176.966 409.442 170.379 397.91 184.705C387.633 184.706 377.777 188.788 370.511 196.055C363.244 203.322 359.161 213.178 359.161 223.455H376.921Z" fill="#2F2E41"/>
<path d="M400.549 331.168C400.601 330.451 400.678 329.708 400.78 328.99C401.498 323.711 403.292 318.636 405.111 313.613C407.033 308.206 408.981 302.773 410.929 297.365C408.421 307.181 409.185 317.547 413.107 326.889C424.358 318.124 417.259 298.083 431.969 298.083C467.335 298.083 503.727 269.405 503.727 234.013C503.727 198.647 488.555 172.199 453.189 172.199C417.797 172.199 389.094 188.396 388.402 223.762C431.969 234.014 392.323 327.581 400.549 331.168Z" fill="#2F2E41"/>
<path d="M499.308 228.593C521.954 228.593 540.312 210.235 540.312 187.588C540.312 164.942 521.954 146.584 499.308 146.584C476.662 146.584 458.303 164.942 458.303 187.588C458.303 210.235 476.662 228.593 499.308 228.593Z" fill="#2F2E41"/>
<path d="M563.232 422.747C563.092 424.857 562.969 427.104 562.862 429.487C560.742 474.377 562.572 534.807 548.282 567.597C545.082 569.347 541.849 571.021 538.582 572.617C538.452 572.677 538.332 572.737 538.222 572.797C537.342 573.227 536.462 573.647 535.582 574.047C535.55 574.075 535.512 574.095 535.472 574.107C525.808 578.673 515.849 582.585 505.662 585.817C504.412 586.217 503.152 586.597 501.892 586.977C501.622 587.057 501.352 587.137 501.082 587.217C481.889 592.893 462.047 596.083 442.042 596.707C441.002 596.737 439.982 596.757 438.992 596.777C438.642 596.787 438.302 596.797 437.962 596.797C436.842 596.807 435.732 596.817 434.612 596.817C432.352 596.817 430.102 596.784 427.862 596.717C409.058 596.19 390.386 593.393 372.252 588.387C370.202 587.827 368.172 587.237 366.142 586.617C355.734 583.449 345.556 579.566 335.682 574.997C335.382 574.867 335.082 574.727 334.782 574.587C329.402 572.087 324.115 569.391 318.922 566.497C317.752 565.837 316.572 565.177 315.422 564.497C314.655 562.719 314.101 560.856 313.772 558.947C311.502 548.037 309.682 555.397 308.382 532.697C307.192 511.887 306.432 491.017 306.152 479.087C306.062 475.907 306.032 473.357 306.022 471.617C307.082 464.037 324.122 455.437 348.972 447.267C351.322 446.497 353.752 445.727 356.242 444.967C362.962 442.897 370.142 440.867 377.642 438.907C396.742 433.907 417.952 429.317 439.002 425.527C449.392 423.667 459.742 421.997 469.792 420.577C487.422 418.077 504.102 416.347 518.372 415.637C519.742 415.567 521.082 415.507 522.402 415.467C523.822 415.407 525.212 415.367 526.572 415.337C547.132 414.887 561.172 417.027 563.232 422.747Z" fill="#2F2E41"/>
<path opacity="0.2" d="M563.232 422.747C563.092 424.857 562.969 427.104 562.862 429.487C547.282 412.707 379.442 487.667 308.382 532.697C307.192 511.887 306.432 491.017 306.152 479.087C306.062 475.907 306.032 473.357 306.022 471.617C307.082 464.037 324.122 455.437 348.972 447.267C351.322 446.497 353.752 445.727 356.242 444.967C362.962 442.897 370.142 440.867 377.642 438.907C396.742 433.907 417.952 429.317 439.002 425.527C449.392 423.667 459.742 421.997 469.792 420.577C487.422 418.077 504.102 416.347 518.372 415.637C519.742 415.567 521.082 415.507 522.402 415.467C523.822 415.407 525.212 415.367 526.572 415.337C547.132 414.887 561.172 417.027 563.232 422.747Z" fill="black"/>
<path d="M221.901 474.76C223.474 476.744 225.464 478.359 227.73 479.491C229.995 480.623 232.482 481.245 235.013 481.312C237.545 481.38 240.061 480.891 242.383 479.881C244.706 478.871 246.779 477.363 248.456 475.466L305.404 498.855L299.259 467.458L246.122 450.061C242.747 447.455 238.533 446.178 234.279 446.471C230.025 446.764 226.026 448.608 223.041 451.652C220.055 454.697 218.29 458.73 218.08 462.989C217.87 467.248 219.229 471.436 221.901 474.76V474.76Z" fill="#FFB6B6"/>
<path d="M411.335 344.019L411.023 343.986L377.814 346.397C373.598 346.703 369.495 347.902 365.777 349.915C362.06 351.928 358.814 354.709 356.253 358.073C355.063 359.631 354.033 361.305 353.178 363.07L353.169 363.075C350.307 368.933 349.444 375.568 350.713 381.963L366.348 460.666L328.729 457.248L314.997 459.595L298.793 453.057L265.541 453.623L264.771 456.171L257.795 479.295L257.248 481.112L308.023 513.108L322.744 508.63L329.679 513.957L330.011 513.966L343.764 514.238L402.411 515.388L418.443 486.986L420.947 482.533C439.566 440.824 444.16 411.707 442.703 391.648C441.939 381.049 439.488 372.993 436.522 366.921C427.349 348.159 411.981 344.178 411.335 344.019Z" fill="#D7E5F2"/>
<path d="M504.494 223.992C496.718 222.244 489.509 218.562 483.535 213.285C477.561 208.009 473.016 201.31 470.321 193.81C467.915 186.832 467.007 179.169 462.969 172.959C469.121 164.511 474.054 155.24 477.623 145.418C479.005 141.616 482.241 134.713 476.755 132.621C472.385 130.955 467.42 134.977 464.829 138.151C462.861 140.556 461.45 143.366 460.696 146.381C459.803 142.436 458.909 138.491 458.016 134.546C457.902 134.168 457.647 133.847 457.303 133.652C456.96 133.457 456.554 133.402 456.171 133.498C448.849 134.747 443.539 141.526 442.616 148.667C442.113 152.343 442.949 156.078 444.973 159.189C447.325 162.767 450.769 165.332 454.046 167.999C457.532 170.835 460.487 173.855 462.361 178.002C464.308 182.312 465.185 187.028 466.477 191.554C468.93 200.246 473.681 208.116 480.232 214.334C486.782 220.552 494.888 224.888 503.697 226.885C505.578 227.296 506.382 224.405 504.494 223.992ZM463.147 152.277C462.912 148.508 463.907 144.765 465.984 141.612C467.024 140.013 468.327 138.602 469.838 137.438C471.27 136.344 473.383 134.895 475.278 135.297C477.736 135.818 476.747 138.562 476.225 140.216C475.536 142.399 474.779 144.558 473.953 146.695C472.345 150.843 470.478 154.887 468.363 158.802C467.265 160.84 466.092 162.835 464.867 164.797C464.022 161.067 463.178 157.338 462.333 153.609C462.599 153.511 462.824 153.326 462.972 153.085C463.12 152.843 463.182 152.558 463.147 152.277V152.277ZM445.627 152.874C445.137 149.466 445.848 145.994 447.64 143.054C449.431 140.114 452.191 137.889 455.444 136.763C457.826 147.277 460.207 157.79 462.588 168.304C462.096 169.029 461.589 169.743 461.081 170.456C460.948 170.303 460.827 170.144 460.688 169.994C455.694 164.559 446.985 160.853 445.627 152.874V152.874Z" fill="#DA0037"/>
</g>
<defs>
<clipPath id="clip0_280_193">
<rect width="563.232" height="596.817" fill="white"/>
</clipPath>
</defs>
</svg>
